<svg xmlns="http://www.w3.org/2000/svg" viewBox="0 0 141.04 157.52"><defs><style>.cls-1{fill:#fff;}</style></defs><g id="Layer_2" data-name="Layer 2"><g id="Layer_13" data-name="Layer 13"><path class="cls-1" d="M116.92,73.34l17.27-11.48V41.93L73.42,0,0,48.13V111.6l19.33,12.89L38.65,111.6V70.41L74.13,46.08ZM29.65,65.67v41.12l-10.32,6.88L9,106.79V53L73.29,10.85l51.9,35.81v.44l-8.32,5V62.57l-.06,0L73.94,35.29Z"/><path class="cls-1" d="M122.55,78.74,92.33,97.54V78.66l-18.86-12L55,80.12v64.06l20,13.34L141,112.34V92.19ZM132,107.59,74.9,146.66l-11-7.3V85.28l9.69,6.17,9.69-7v29.34h0v10.84l9.32-6.28V107.93l29.48-18.35L132,96.77Z"/></g></g></svg>